<svg xmlns="http://www.w3.org/2000/svg" xmlns:xlink="http://www.w3.org/1999/xlink" width="500" zoomAndPan="magnify" viewBox="0 0 375 374.999991" height="500" preserveAspectRatio="xMidYMid meet" version="1.0"><defs><clipPath id="cbfa69cabf"><path d="M 77.671875 69.246094 L 297.421875 69.246094 L 297.421875 305.496094 L 77.671875 305.496094 Z M 77.671875 69.246094 " clip-rule="nonzero"/></clipPath></defs><g clip-path="url(#cbfa69cabf)"><path fill="#ff0000" d="M 170.605469 69.246094 C 156.714844 69.246094 145.269531 80.695312 145.269531 94.585938 L 145.269531 111.476562 L 77.699219 111.476562 L 77.699219 128.371094 L 103.035156 128.371094 L 103.035156 280.402344 C 103.035156 294.296875 114.484375 305.742188 128.375 305.742188 L 246.625 305.742188 C 260.515625 305.742188 271.960938 294.296875 271.960938 280.402344 L 271.960938 128.371094 L 297.300781 128.371094 L 297.300781 111.476562 L 226.53125 111.476562 L 226.53125 94.585938 C 226.53125 80.695312 215.082031 69.246094 201.191406 69.246094 Z M 170.605469 86.140625 L 201.191406 86.140625 C 206.015625 86.140625 209.636719 89.761719 209.636719 94.585938 L 209.636719 111.476562 L 162.160156 111.476562 L 162.160156 94.585938 C 162.160156 89.761719 165.78125 86.140625 170.605469 86.140625 Z M 153.714844 162.15625 L 170.605469 162.15625 L 170.605469 255.066406 L 153.714844 255.066406 Z M 204.390625 162.15625 L 221.285156 162.15625 L 221.285156 255.066406 L 204.390625 255.066406 Z M 204.390625 162.15625 " fill-opacity="1" fill-rule="nonzero"/></g></svg>