<svg xmlns="http://www.w3.org/2000/svg" xmlns:xlink="http://www.w3.org/1999/xlink" width="500" zoomAndPan="magnify" viewBox="0 0 375 374.999991" height="500" preserveAspectRatio="xMidYMid meet" version="1.0"><defs><clipPath id="667f506fa7"><path d="M 158 140 L 310.59375 140 L 310.59375 235 L 158 235 Z M 158 140 " clip-rule="nonzero"/></clipPath><clipPath id="791c875724"><path d="M 64.59375 70.449219 L 228 70.449219 L 228 304 L 64.59375 304 Z M 64.59375 70.449219 " clip-rule="nonzero"/></clipPath></defs><g clip-path="url(#667f506fa7)"><path fill="#000000" d="M 263.738281 163.507812 L 158.308594 163.507812 L 158.308594 210.308594 L 263.738281 210.308594 L 263.738281 234.785156 L 310.59375 187.484375 L 263.738281 140.179688 Z M 263.738281 163.507812 " fill-opacity="1" fill-rule="nonzero"/></g><g clip-path="url(#791c875724)"><path fill="#000000" d="M 227.644531 151.808594 L 227.644531 94.382812 C 227.644531 93.617188 227.609375 92.855469 227.53125 92.089844 C 227.457031 91.328125 227.34375 90.570312 227.195312 89.820312 C 227.046875 89.066406 226.859375 88.324219 226.636719 87.59375 C 226.414062 86.859375 226.15625 86.136719 225.863281 85.429688 C 225.570312 84.722656 225.242188 84.03125 224.878906 83.355469 C 224.519531 82.679688 224.125 82.019531 223.699219 81.382812 C 223.269531 80.746094 222.816406 80.132812 222.328125 79.539062 C 221.839844 78.949219 221.328125 78.378906 220.785156 77.839844 C 220.242188 77.296875 219.671875 76.78125 219.082031 76.296875 C 218.488281 75.808594 217.871094 75.355469 217.234375 74.929688 C 216.59375 74.503906 215.9375 74.109375 215.261719 73.746094 C 214.585938 73.386719 213.890625 73.058594 213.183594 72.765625 C 212.472656 72.472656 211.753906 72.214844 211.019531 71.992188 C 210.285156 71.769531 209.539062 71.582031 208.789062 71.433594 C 208.035156 71.285156 207.277344 71.171875 206.515625 71.097656 C 205.75 71.023438 204.984375 70.984375 204.21875 70.984375 L 88.023438 70.984375 C 87.257812 70.984375 86.492188 71.023438 85.726562 71.097656 C 84.964844 71.171875 84.207031 71.285156 83.453125 71.433594 C 82.699219 71.582031 81.957031 71.769531 81.222656 71.992188 C 80.488281 72.214844 79.765625 72.472656 79.058594 72.765625 C 78.347656 73.058594 77.65625 73.386719 76.980469 73.746094 C 76.300781 74.109375 75.644531 74.503906 75.007812 74.929688 C 74.367188 75.355469 73.753906 75.808594 73.160156 76.296875 C 72.566406 76.78125 72 77.296875 71.457031 77.839844 C 70.914062 78.378906 70.398438 78.949219 69.914062 79.539062 C 69.425781 80.132812 68.96875 80.746094 68.542969 81.382812 C 68.117188 82.019531 67.722656 82.679688 67.359375 83.355469 C 67 84.03125 66.671875 84.722656 66.378906 85.429688 C 66.085938 86.136719 65.828125 86.859375 65.605469 87.59375 C 65.378906 88.324219 65.195312 89.066406 65.042969 89.820312 C 64.894531 90.570312 64.78125 91.328125 64.707031 92.089844 C 64.632812 92.855469 64.59375 93.617188 64.59375 94.382812 L 64.59375 280.511719 C 64.59375 281.277344 64.632812 282.039062 64.707031 282.804688 C 64.78125 283.566406 64.894531 284.324219 65.042969 285.074219 C 65.195312 285.828125 65.378906 286.570312 65.605469 287.304688 C 65.828125 288.035156 66.085938 288.757812 66.378906 289.464844 C 66.671875 290.171875 67 290.863281 67.359375 291.539062 C 67.722656 292.214844 68.117188 292.875 68.542969 293.511719 C 68.96875 294.148438 69.425781 294.761719 69.914062 295.355469 C 70.398438 295.949219 70.914062 296.515625 71.457031 297.054688 C 72 297.597656 72.566406 298.113281 73.160156 298.597656 C 73.753906 299.085938 74.367188 299.539062 75.007812 299.964844 C 75.644531 300.390625 76.300781 300.785156 76.980469 301.148438 C 77.65625 301.507812 78.347656 301.835938 79.058594 302.128906 C 79.765625 302.421875 80.488281 302.679688 81.222656 302.902344 C 81.957031 303.125 82.699219 303.3125 83.453125 303.460938 C 84.207031 303.609375 84.964844 303.722656 85.726562 303.796875 C 86.492188 303.871094 87.257812 303.910156 88.023438 303.910156 L 204.21875 303.910156 C 204.984375 303.910156 205.75 303.871094 206.515625 303.796875 C 207.277344 303.722656 208.035156 303.609375 208.789062 303.460938 C 209.539062 303.3125 210.285156 303.125 211.019531 302.902344 C 211.753906 302.679688 212.472656 302.421875 213.183594 302.128906 C 213.890625 301.835938 214.585938 301.507812 215.261719 301.148438 C 215.9375 300.785156 216.59375 300.390625 217.234375 299.964844 C 217.871094 299.539062 218.488281 299.085938 219.082031 298.597656 C 219.671875 298.113281 220.242188 297.597656 220.785156 297.054688 C 221.328125 296.515625 221.839844 295.949219 222.328125 295.355469 C 222.816406 294.761719 223.269531 294.148438 223.699219 293.511719 C 224.125 292.875 224.519531 292.214844 224.878906 291.539062 C 225.242188 290.863281 225.570312 290.171875 225.863281 289.464844 C 226.15625 288.757812 226.414062 288.035156 226.636719 287.304688 C 226.859375 286.570312 227.046875 285.828125 227.195312 285.074219 C 227.34375 284.324219 227.457031 283.566406 227.53125 282.804688 C 227.609375 282.039062 227.644531 281.277344 227.644531 280.511719 L 227.644531 222.007812 L 147.167969 222.007812 L 147.167969 151.808594 Z M 227.644531 151.808594 " fill-opacity="1" fill-rule="nonzero"/></g></svg>