<svg xmlns="http://www.w3.org/2000/svg" xmlns:xlink="http://www.w3.org/1999/xlink" width="500" zoomAndPan="magnify" viewBox="0 0 375 374.999991" height="500" preserveAspectRatio="xMidYMid meet" version="1.0"><defs><clipPath id="8edf3eb9ab"><path d="M 157.441406 151.402344 L 217.441406 151.402344 L 217.441406 211.402344 L 157.441406 211.402344 Z M 157.441406 151.402344 " clip-rule="nonzero"/></clipPath></defs><rect x="-37.5" width="450" fill="#ffffff" y="-37.499999" height="449.999989" fill-opacity="1"/><rect x="-37.5" width="450" fill="#ffffff" y="-37.499999" height="449.999989" fill-opacity="1"/><g clip-path="url(#8edf3eb9ab)"><path fill="#fffc00" d="M 157.464844 196.140625 L 157.464844 196.144531 C 157.5 197.476562 157.511719 198.816406 157.738281 200.136719 C 157.976562 201.539062 158.316406 202.90625 158.964844 204.175781 C 159.84375 205.894531 161.046875 207.347656 162.570312 208.535156 C 163.664062 209.386719 164.855469 210.0625 166.175781 210.492188 C 168.101562 211.113281 170.089844 211.351562 172.109375 211.363281 C 173.367188 211.371094 174.621094 211.402344 175.882812 211.394531 C 185.019531 211.359375 194.160156 211.460938 203.300781 211.339844 C 204.515625 211.324219 205.707031 211.175781 206.898438 210.957031 C 209.179688 210.539062 211.195312 209.566406 212.921875 208.027344 C 214.929688 206.234375 216.289062 204.039062 216.902344 201.390625 C 217.300781 199.660156 217.402344 197.902344 217.417969 196.140625 L 217.417969 195.789062 C 217.417969 195.652344 217.367188 165.839844 217.363281 165.445312 C 217.347656 164.363281 217.269531 163.285156 217.066406 162.222656 C 216.820312 160.925781 216.46875 159.660156 215.847656 158.484375 C 215.191406 157.246094 214.371094 156.128906 213.355469 155.152344 C 211.796875 153.660156 210 152.605469 207.90625 152.046875 C 206.015625 151.542969 204.089844 151.429688 202.144531 151.429688 C 202.144531 151.429688 202.136719 151.410156 202.136719 151.402344 L 172.738281 151.402344 C 172.738281 151.410156 172.738281 151.421875 172.738281 151.429688 C 171.636719 151.453125 170.53125 151.441406 169.433594 151.578125 C 168.234375 151.726562 167.042969 151.953125 165.90625 152.375 C 164.117188 153.035156 162.558594 154.066406 161.230469 155.445312 C 159.722656 157.003906 158.664062 158.808594 158.097656 160.914062 C 157.597656 162.789062 157.488281 164.699219 157.484375 166.625 " fill-opacity="1" fill-rule="nonzero"/></g><path fill="#ffffff" d="M 187.714844 202.023438 C 187.589844 202.023438 187.46875 202.019531 187.378906 202.015625 C 187.308594 202.023438 187.234375 202.023438 187.160156 202.023438 C 184.542969 202.023438 182.796875 200.789062 181.25 199.695312 C 180.144531 198.914062 179.101562 198.175781 177.878906 197.972656 C 177.28125 197.875 176.683594 197.824219 176.105469 197.824219 C 175.066406 197.824219 174.246094 197.984375 173.644531 198.101562 C 173.273438 198.171875 172.957031 198.234375 172.710938 198.234375 C 172.453125 198.234375 172.140625 198.179688 172.011719 197.734375 C 171.90625 197.382812 171.832031 197.039062 171.761719 196.714844 C 171.582031 195.894531 171.453125 195.394531 171.144531 195.347656 C 167.863281 194.839844 165.925781 194.09375 165.539062 193.191406 C 165.5 193.097656 165.476562 193 165.472656 192.90625 C 165.457031 192.636719 165.644531 192.402344 165.910156 192.355469 C 168.515625 191.929688 170.832031 190.550781 172.796875 188.261719 C 174.320312 186.492188 175.066406 184.796875 175.148438 184.613281 C 175.148438 184.601562 175.152344 184.59375 175.160156 184.585938 C 175.535156 183.816406 175.613281 183.15625 175.382812 182.613281 C 174.960938 181.617188 173.558594 181.171875 172.632812 180.878906 C 172.402344 180.804688 172.183594 180.738281 172.011719 180.667969 C 171.191406 180.34375 169.839844 179.660156 170.019531 178.710938 C 170.152344 178.023438 171.0625 177.542969 171.800781 177.542969 C 172.003906 177.542969 172.1875 177.578125 172.339844 177.648438 C 173.171875 178.039062 173.921875 178.238281 174.566406 178.238281 C 175.367188 178.238281 175.753906 177.933594 175.847656 177.847656 C 175.828125 177.417969 175.796875 176.96875 175.769531 176.539062 C 175.769531 176.539062 175.769531 176.535156 175.769531 176.535156 C 175.582031 173.539062 175.347656 169.816406 176.300781 167.679688 C 179.152344 161.285156 185.199219 160.785156 186.984375 160.785156 C 187.035156 160.785156 187.765625 160.78125 187.765625 160.78125 C 187.796875 160.777344 187.832031 160.777344 187.871094 160.777344 C 189.660156 160.777344 195.71875 161.277344 198.574219 167.675781 C 199.527344 169.8125 199.292969 173.539062 199.105469 176.539062 L 199.09375 176.679688 C 199.070312 177.085938 199.046875 177.472656 199.023438 177.847656 C 199.113281 177.925781 199.46875 178.207031 200.1875 178.234375 C 200.800781 178.210938 201.507812 178.015625 202.285156 177.652344 C 202.527344 177.539062 202.792969 177.515625 202.972656 177.515625 C 203.246094 177.515625 203.523438 177.566406 203.757812 177.664062 L 203.769531 177.667969 C 204.429688 177.902344 204.859375 178.371094 204.871094 178.863281 C 204.878906 179.320312 204.539062 180.007812 202.863281 180.667969 C 202.691406 180.738281 202.472656 180.804688 202.242188 180.878906 C 201.3125 181.171875 199.914062 181.617188 199.492188 182.613281 C 199.261719 183.15625 199.335938 183.816406 199.714844 184.585938 C 199.71875 184.59375 199.722656 184.601562 199.726562 184.613281 C 199.84375 184.886719 202.667969 191.320312 208.960938 192.355469 C 209.226562 192.402344 209.417969 192.636719 209.402344 192.90625 C 209.398438 193.003906 209.375 193.097656 209.332031 193.191406 C 208.949219 194.089844 207.011719 194.835938 203.730469 195.34375 C 203.421875 195.390625 203.292969 195.886719 203.113281 196.703125 C 203.042969 197.039062 202.964844 197.371094 202.863281 197.714844 C 202.769531 198.042969 202.554688 198.203125 202.214844 198.203125 L 202.164062 198.203125 C 201.941406 198.203125 201.628906 198.160156 201.230469 198.085938 C 200.535156 197.949219 199.757812 197.824219 198.769531 197.824219 C 198.191406 197.824219 197.59375 197.875 196.996094 197.972656 C 195.773438 198.175781 194.730469 198.914062 193.625 199.695312 C 192.078125 200.789062 190.328125 202.023438 187.714844 202.023438 " fill-opacity="1" fill-rule="nonzero"/><path fill="#020202" d="M 187.871094 161.304688 C 189.554688 161.304688 195.359375 161.757812 198.09375 167.890625 C 198.992188 169.910156 198.761719 173.566406 198.578125 176.503906 C 198.546875 176.96875 198.519531 177.421875 198.496094 177.851562 L 198.488281 178.039062 L 198.609375 178.175781 C 198.660156 178.230469 199.128906 178.722656 200.167969 178.761719 L 200.203125 178.761719 C 200.890625 178.734375 201.667969 178.523438 202.511719 178.128906 C 202.632812 178.070312 202.800781 178.042969 202.972656 178.042969 C 203.171875 178.042969 203.382812 178.078125 203.558594 178.152344 L 203.585938 178.164062 C 204.027344 178.316406 204.339844 178.609375 204.34375 178.875 C 204.347656 179.023438 204.234375 179.558594 202.667969 180.179688 C 202.515625 180.238281 202.316406 180.304688 202.082031 180.375 C 201.0625 180.699219 199.523438 181.1875 199.007812 182.410156 C 198.714844 183.097656 198.792969 183.90625 199.242188 184.820312 C 199.429688 185.25 202.335938 191.796875 208.878906 192.875 C 208.875 192.90625 208.867188 192.941406 208.851562 192.980469 C 208.738281 193.242188 208.035156 194.144531 203.648438 194.820312 C 202.964844 194.925781 202.796875 195.695312 202.601562 196.589844 C 202.53125 196.910156 202.457031 197.234375 202.359375 197.566406 C 202.328125 197.667969 202.324219 197.675781 202.214844 197.675781 C 202.199219 197.675781 202.183594 197.675781 202.164062 197.675781 C 201.96875 197.675781 201.675781 197.632812 201.332031 197.566406 C 200.710938 197.445312 199.859375 197.296875 198.769531 197.296875 C 198.164062 197.296875 197.535156 197.347656 196.910156 197.453125 C 195.566406 197.675781 194.476562 198.449219 193.320312 199.265625 C 191.765625 200.363281 190.164062 201.496094 187.714844 201.496094 C 187.609375 201.496094 187.503906 201.496094 187.398438 201.488281 L 187.34375 201.488281 C 187.285156 201.496094 187.222656 201.496094 187.160156 201.496094 C 184.714844 201.496094 183.109375 200.363281 181.558594 199.265625 C 180.402344 198.449219 179.308594 197.675781 177.96875 197.453125 C 177.339844 197.347656 176.714844 197.296875 176.105469 197.296875 C 175.019531 197.296875 174.167969 197.460938 173.542969 197.585938 C 173.203125 197.652344 172.90625 197.707031 172.710938 197.707031 C 172.554688 197.707031 172.550781 197.699219 172.515625 197.585938 C 172.417969 197.25 172.347656 196.917969 172.277344 196.601562 C 172.082031 195.703125 171.914062 194.929688 171.226562 194.824219 C 166.839844 194.148438 166.136719 193.246094 166.027344 192.984375 C 166.007812 192.945312 166 192.910156 166 192.878906 C 172.539062 191.800781 175.445312 185.25 175.632812 184.820312 C 176.082031 183.90625 176.160156 183.097656 175.871094 182.410156 C 175.351562 181.1875 173.8125 180.699219 172.796875 180.378906 C 172.5625 180.304688 172.359375 180.238281 172.207031 180.179688 C 170.886719 179.65625 170.476562 179.128906 170.539062 178.8125 C 170.609375 178.445312 171.246094 178.070312 171.800781 178.070312 C 171.925781 178.070312 172.035156 178.089844 172.117188 178.128906 C 173.019531 178.550781 173.84375 178.765625 174.570312 178.765625 C 175.707031 178.765625 176.210938 178.238281 176.265625 178.175781 L 176.390625 178.039062 L 176.378906 177.855469 C 176.355469 177.421875 176.328125 176.972656 176.296875 176.507812 C 176.113281 173.566406 175.882812 169.914062 176.78125 167.894531 C 179.507812 161.785156 185.28125 161.3125 186.988281 161.3125 C 187.027344 161.3125 187.769531 161.304688 187.769531 161.304688 C 187.800781 161.304688 187.835938 161.304688 187.871094 161.304688 M 187.871094 160.25 L 187.867188 160.25 C 187.828125 160.25 187.792969 160.25 187.757812 160.253906 C 187.480469 160.253906 187.023438 160.257812 186.984375 160.261719 C 185.984375 160.261719 183.988281 160.402344 181.839844 161.347656 C 180.613281 161.890625 179.511719 162.621094 178.558594 163.523438 C 177.429688 164.597656 176.503906 165.925781 175.820312 167.464844 C 174.8125 169.71875 175.050781 173.515625 175.242188 176.566406 L 175.246094 176.570312 C 175.265625 176.898438 175.285156 177.238281 175.304688 177.574219 C 175.160156 177.640625 174.917969 177.710938 174.566406 177.710938 C 174 177.710938 173.324219 177.53125 172.5625 177.171875 C 172.339844 177.070312 172.082031 177.015625 171.800781 177.015625 C 171.347656 177.015625 170.867188 177.148438 170.453125 177.394531 C 169.929688 177.699219 169.59375 178.132812 169.503906 178.613281 C 169.441406 178.933594 169.445312 179.558594 170.140625 180.195312 C 170.527344 180.546875 171.089844 180.871094 171.816406 181.160156 C 172.007812 181.234375 172.234375 181.304688 172.476562 181.382812 C 173.308594 181.648438 174.570312 182.046875 174.898438 182.820312 C 175.066406 183.210938 174.992188 183.730469 174.683594 184.351562 C 174.675781 184.371094 174.667969 184.386719 174.660156 184.402344 C 174.585938 184.582031 173.867188 186.207031 172.398438 187.917969 C 171.5625 188.894531 170.640625 189.707031 169.664062 190.339844 C 168.472656 191.109375 167.179688 191.613281 165.824219 191.835938 C 165.292969 191.925781 164.914062 192.398438 164.945312 192.9375 C 164.953125 193.089844 164.988281 193.246094 165.054688 193.394531 C 165.054688 193.398438 165.054688 193.398438 165.054688 193.398438 C 165.269531 193.902344 165.769531 194.328125 166.578125 194.703125 C 167.566406 195.164062 169.046875 195.550781 170.976562 195.855469 C 171.074219 196.039062 171.175781 196.503906 171.246094 196.824219 C 171.320312 197.164062 171.394531 197.511719 171.503906 197.882812 C 171.621094 198.28125 171.925781 198.761719 172.710938 198.761719 C 173.007812 198.761719 173.351562 198.695312 173.746094 198.617188 C 174.324219 198.503906 175.117188 198.351562 176.105469 198.351562 C 176.652344 198.351562 177.222656 198.398438 177.792969 198.492188 C 178.894531 198.675781 179.847656 199.347656 180.945312 200.125 C 182.554688 201.261719 184.378906 202.550781 187.160156 202.550781 C 187.234375 202.550781 187.3125 202.546875 187.386719 202.542969 C 187.480469 202.546875 187.59375 202.550781 187.714844 202.550781 C 190.5 202.550781 192.320312 201.261719 193.925781 200.125 L 193.929688 200.125 C 195.027344 199.347656 195.980469 198.675781 197.082031 198.492188 C 197.652344 198.398438 198.21875 198.351562 198.769531 198.351562 C 199.714844 198.351562 200.460938 198.46875 201.128906 198.601562 C 201.566406 198.6875 201.902344 198.726562 202.164062 198.726562 L 202.214844 198.726562 C 202.789062 198.726562 203.210938 198.414062 203.371094 197.863281 C 203.476562 197.5 203.554688 197.160156 203.628906 196.816406 C 203.695312 196.515625 203.800781 196.035156 203.894531 195.851562 C 205.828125 195.546875 207.304688 195.160156 208.296875 194.699219 C 209.105469 194.328125 209.601562 193.898438 209.816406 193.398438 C 209.882812 193.25 209.921875 193.09375 209.929688 192.933594 C 209.960938 192.398438 209.578125 191.921875 209.046875 191.835938 C 203.035156 190.84375 200.324219 184.664062 200.210938 184.402344 C 200.203125 184.386719 200.195312 184.367188 200.1875 184.351562 C 199.882812 183.726562 199.808594 183.210938 199.976562 182.820312 C 200.304688 182.046875 201.566406 181.644531 202.398438 181.382812 C 202.640625 181.304688 202.867188 181.234375 203.054688 181.160156 C 203.878906 180.835938 204.464844 180.484375 204.851562 180.082031 C 205.3125 179.605469 205.402344 179.152344 205.398438 178.851562 C 205.382812 178.128906 204.832031 177.488281 203.953125 177.175781 C 203.65625 177.050781 203.316406 176.988281 202.972656 176.988281 C 202.738281 176.988281 202.390625 177.019531 202.0625 177.171875 C 201.359375 177.503906 200.730469 177.683594 200.1875 177.707031 C 199.902344 177.691406 199.699219 177.628906 199.566406 177.570312 C 199.585938 177.289062 199.601562 177 199.621094 176.699219 L 199.628906 176.570312 C 199.820312 173.515625 200.0625 169.714844 199.054688 167.460938 C 198.367188 165.914062 197.441406 164.585938 196.304688 163.507812 C 195.351562 162.605469 194.242188 161.875 193.011719 161.332031 C 190.867188 160.390625 188.871094 160.25 187.871094 160.25 " fill-opacity="1" fill-rule="nonzero"/></svg>